<svg viewBox="0 0 24 24" xmlns="http://www.w3.org/2000/svg"><path d="m0 0h24v24h-24z" fill="none"/><path d="m14.09 14.19c.352.27.73.5 1.13.69.42.196.877.296 1.34.29.51.014 1.01-.125 1.44-.4.378-.253.594-.686.57-1.14.02-.45-.197-.877-.57-1.13-.406-.274-.89-.41-1.38-.39h-.47c-.135.014-.27.04-.4.08l-.41.15-.48.23-1.02-.57.28-5h6.4v1.92h-4.31l-.21 1.84c.222-.077.45-.138.68-.18.235-.037.472-.054.71-.05.463-.004.924.057 1.37.18.41.115.798.305 1.14.56.33.248.597.57.78.94.212.422.322.888.32 1.36.007.497-.11.99-.34 1.43-.224.417-.534.782-.91 1.07-.393.3-.837.527-1.31.67-.497.164-1.016.252-1.54.26-.788.023-1.573-.11-2.31-.39-.584-.238-1.122-.577-1.59-1zm-3.09 2.81h-2v-4h-4v4h-2v-10h2v4h4v-4h2z"/></svg>